<svg width="316" height="228" viewBox="0 0 316 228" fill="none" xmlns="http://www.w3.org/2000/svg">
<path d="M219.203 167.496C203.094 175.154 186.084 167.826 179.592 163.205C155.825 140.758 164.407 115.011 181.902 102.137C199.397 89.2633 220.854 80.3507 238.349 86.9526C255.844 93.5545 260.465 105.108 255.844 122.273C251.222 139.438 239.339 157.923 219.203 167.496Z" fill="#FAA96A"/>
<path d="M134.699 17.3025C155.825 23.9044 164.077 44.7004 164.737 45.3606C167.818 49.982 172.924 63.4499 168.699 80.3508C163.417 101.477 141.961 119.302 125.786 122.273C109.611 125.244 89.8056 117.322 83.5337 93.5546C77.2619 69.7877 88.1551 43.05 94.4269 32.4869C100.699 21.9238 113.572 10.7005 134.699 17.3025Z" fill="#F47C3E"/>
<path d="M206.99 190.273C180.582 185.519 157.915 168.707 149.883 160.894C150.433 172.448 158.201 199.251 184.873 214.04C218.213 232.525 257.164 233.845 285.553 208.098C313.941 182.35 312.62 135.147 312.29 127.224C295.786 178.059 239.999 196.215 206.99 190.273Z" fill="#F47C3E"/>
<path d="M80.5629 55.9237L4.64075 96.8556C4.64075 85.6323 13.2232 51.9625 42.9319 48.0014C66.6988 44.8324 77.9221 51.9625 80.5629 55.9237Z" fill="#5E7B39"/>
<path d="M81.5532 62.1954C79.6826 66.4867 70.2639 75.8614 47.5533 79.0303C24.8427 82.1992 7.72167 75.2892 2 71.4381C7.17151 64.6161 25.5689 51.0382 57.7862 51.3022C90.0036 51.5663 108.841 61.7553 114.233 66.8167C114.893 66.4866 116.015 65.1003 115.223 62.1954C114.233 58.5643 111.262 61.2051 109.281 60.2148C107.301 59.2245 107.631 57.574 110.932 56.9139C114.233 56.2537 114.233 54.9333 116.213 52.6226C118.194 50.3119 120.174 51.6323 119.184 53.943C118.194 56.2537 118.194 57.574 121.165 57.9041C124.136 58.2342 125.126 60.2148 120.174 65.4964C115.223 70.7779 116.543 75.0691 122.815 94.5448C127.833 110.125 142.071 141.308 148.563 154.952C136.349 154.842 107.829 146.106 91.4561 112.04C70.9901 69.4575 97.7279 17.6324 140.97 5.08876C184.213 -7.4549 225.475 19.9431 238.019 55.9236C250.562 91.904 243.3 120.292 230.096 126.894C216.893 133.496 190.155 126.894 173.65 130.525C157.145 134.156 163.087 127.554 169.359 120.292C175.631 113.03 185.533 102.467 199.728 98.506C213.922 94.5448 221.514 99.8264 222.504 110.059C223.296 118.246 223.715 124.033 223.825 125.904C216.232 125.574 198.737 123.989 189.495 120.292C177.941 115.671 178.271 104.778 192.135 97.1856C205.999 89.5934 226.135 85.3021 236.038 87.2827C245.941 89.2633 239.999 111.05 230.096 123.923C222.076 107.419 220.854 98.8509 223.825 92.8943C226.795 86.9378 236.368 81.341 252.543 82.6614C268.718 83.9817 284.232 89.5934 272.349 101.807C262.842 111.578 245.501 120.622 238.019 123.923C240.659 118.752 247.459 106.164 253.533 97.1856C261.125 85.9623 268.388 82.9915 278.621 87.2827C288.854 91.574 302.718 101.147 292.154 112.04C281.591 122.933 252.213 126.894 240.329 126.894C258.815 114.351 273.669 108.739 282.912 106.758C292.154 104.778 301.067 106.428 301.067 120.292C301.067 134.156 293.475 146.7 282.912 146.7C274.461 146.7 251.003 137.237 240.329 132.506C249.132 130.305 270.5 125.904 285.553 125.904C304.368 125.904 302.057 135.807 298.096 144.719C294.135 153.632 280.271 168.816 271.358 172.117C262.446 175.418 252.213 179.38 246.271 167.166C241.518 157.395 237.469 139.988 236.038 132.506C240.659 134.486 253.071 140.098 265.747 146.7C281.591 154.952 274.659 162.215 267.727 167.166C260.795 172.117 242.64 178.059 230.096 179.38C217.553 180.7 211.941 179.38 217.223 164.855C221.448 153.236 228.446 139.328 231.417 133.826C233.067 138.448 236.962 150.133 239.339 159.904C242.31 172.117 243.3 180.04 231.417 183.671C219.533 187.302 201.708 183.671 194.116 175.418C186.524 167.166 192.465 154.952 202.368 148.02C210.291 142.475 222.614 136.247 227.786 133.826C223.825 142.739 214.186 162.875 207.32 172.117C198.737 183.671 188.174 181.36 177.941 172.117C167.708 162.875 162.097 152.642 161.106 146.7C160.116 140.758 162.757 135.147 181.242 133.826C196.031 132.77 214.912 132.506 222.504 132.506C211.501 140.098 186.986 155.745 176.951 157.593C164.407 159.904 154.835 158.914 154.174 144.719C153.514 130.525 160.776 108.079 184.873 94.5448C208.97 81.0109 255.184 74.0789 279.941 82.6614C304.698 91.2439 322.193 117.982 299.417 154.952C276.64 191.923 224.815 192.583 197.747 186.642C176.093 181.888 158.796 165.295 152.854 157.593C152.414 167.716 157.277 191.527 180.252 205.787C208.97 223.612 240.329 230.544 272.349 213.379C304.368 196.214 312.62 165.515 314.271 146.7C315.591 131.648 314.821 122.823 314.271 120.292" stroke="#3E475B" stroke-width="2"/>
</svg>
