<svg width="273" height="338" viewBox="0 0 273 338" fill="none" xmlns="http://www.w3.org/2000/svg">
<path d="M55.8934 110.43C63.771 115.808 79.7687 127.205 86.7829 132.231C86.6853 123.853 86.4637 105.322 86.3579 98.2263C86.2258 89.3569 89.538 90.8558 92.6504 100.014C95.1403 107.34 97.7832 123.83 98.7934 131.16C100.853 116.057 105.488 84.088 107.556 77.0405C110.141 68.2311 113.073 64.3304 115.466 73.7844C117.381 81.3476 119.142 99.0986 119.784 107.029C123.756 95.7401 132.696 71.1707 136.672 63.2029C141.643 53.2431 143.572 52.6174 145.599 60.3702C147.22 66.5725 152.093 77.8456 154.327 82.7068C159.039 67.9146 169.607 37.7583 174.182 35.4712C179.9 32.6122 178.732 44.0371 171.164 76.618C175.27 71.8968 188.518 60.3821 187.689 66.1114C186.859 71.8407 182.49 76.3334 171.096 93.1465C178.377 87.9606 198.684 82.1267 195.49 85.7988L181.344 102.061C186.984 101.591 200.498 100.844 209.431 101.612C220.598 102.571 223.316 102.631 214.175 109.425C206.863 114.859 181.568 126.215 169.834 131.213C172.978 131.491 180.773 132.435 186.803 133.994C194.34 135.943 202.368 137.857 194.686 140.851C187.004 143.845 176.446 148.023 158.96 155.389C171.371 156.51 190.055 162.626 181.288 164.214C174.274 165.485 155.57 167.953 147.095 169.029C155.99 175.077 174.982 188.126 179.79 191.939C185.799 196.705 201.288 206.493 194.45 207.456C187.612 208.419 163.369 203.918 124.797 185.111C86.2258 166.304 53.7377 128.828 45.7018 116.309C37.6659 103.79 46.0464 103.708 55.8934 110.43Z" fill="#7C8F51"/>
<path d="M-6.52204 248.316C-7.35932 240.806 -4.26519 232.215 2.90217 219.659C15.2031 198.112 34.9067 183.925 53.8332 172.747C72.7597 161.57 98.4722 159.52 107.447 168.247C114.626 175.23 115.087 183.8 114.42 187.212C110.544 183.38 98.5751 175.272 81.7091 173.5C64.8432 171.729 46.2125 183.624 39.0054 189.793C53.9331 187.269 86.7258 183.392 98.4748 188.084C110.224 192.776 113.849 199.154 114.193 201.756C98.2505 199.099 61.6681 194.212 42.876 195.924C24.0838 197.637 20.0509 202.943 20.3835 205.382C22.0284 205.431 25.8995 205.389 28.2248 204.832C31.1315 204.136 71.1242 202.069 87.3057 204.628C100.251 206.674 109.189 213.681 112.039 216.929C110.482 216.956 107.066 216.933 105.863 216.623C104.358 216.236 59.5401 209.038 42.6492 210.469C29.1364 211.614 15.3766 216.076 10.1858 218.164C11.58 218.148 15.5283 218.02 20.1681 217.633C25.9677 217.15 67.4667 216.854 82.9389 223.402C95.3167 228.641 103.301 234.204 105.746 236.331C89.1871 232.83 52.091 225.408 36.1778 223.728C20.2646 222.047 8.5327 230.853 4.65588 235.466C7.0883 234.664 14.2802 233.242 23.5886 233.968C35.224 234.876 73.2313 236.15 84.8755 240.75C94.1909 244.431 97.3537 247.919 97.7706 249.203C96.7032 249.196 93.4629 248.865 89.0419 247.599C83.5156 246.017 40.5648 240.904 21.1219 241.036C5.56757 241.142 -0.81616 245.448 -2.06373 247.588C-0.494878 247.724 5.15242 247.968 15.1908 247.855C27.7387 247.713 63.7292 249.997 76.5115 255.127C86.7374 259.231 88.9972 261.841 88.8489 262.634C76.481 260.628 49.5095 256.331 40.5661 255.186C29.387 253.754 13.2141 254.888 13.9161 261.488C14.4776 266.767 19.615 271.512 22.1134 273.225C25.1095 264.314 33.6124 241.49 43.6557 221.479C56.2098 196.466 64.1852 183.595 71.1554 173.994C78.1255 164.394 80.002 170.173 76.9186 179.008C73.8352 187.843 39.6963 260.418 35.8358 272.262C31.9753 284.107 38.3377 279.967 42.435 271.553C46.5324 263.14 86.2052 181.557 90.8603 174.09C95.5154 166.622 98.9548 170.074 97.3668 175.603C95.7787 181.132 53.8674 269.52 51.3418 279.301C48.8162 289.082 54.5531 283.016 59.6306 274.533C64.7082 266.051 101.078 197.259 105.268 186.623C109.458 175.986 128.344 174.908 143.106 185.446C157.869 195.984 173.249 204.755 183.888 212.627C194.527 220.5 192.059 213.285 184.326 204.717C178.14 197.862 157.214 181.747 147.525 174.547C156.039 173.047 175.184 169.307 183.647 166.35C194.225 162.653 189.874 160.249 182.59 161.745C176.763 162.942 155.506 164.137 145.606 164.586C148.059 160.884 153.59 152.551 156.09 148.829C159.216 144.177 162.688 133.838 151.011 143.029C141.67 150.382 128.063 157.772 122.427 160.548C124.393 153.351 128.999 137.334 131.703 130.84C135.082 122.723 132.462 120.444 126.176 129.258C121.148 136.308 112.315 149.602 108.527 155.367C106.969 145.872 103.297 124.559 101.079 115.258C98.3066 103.633 96.0843 103.543 95.7133 112.434C95.4165 119.546 95.924 136.879 96.2148 144.657C89.5474 139.625 73.1369 127.807 60.8333 120.79C45.4539 112.019 50.0765 118.344 54.6315 123.688C59.1864 129.032 76.6453 146.522 89.4138 156.708C102.182 166.893 101.185 159.576 103.719 153.488C106.253 147.4 108.137 142.589 110.814 127.873C113.492 113.156 114.909 90.8947 117.638 84.0546C120.367 77.2145 122.225 75.6066 122.868 84.9189C123.383 92.3687 124.656 108.433 125.229 115.534C126.327 114.801 130.193 111.837 136.872 105.853C145.219 98.3721 147.805 100.161 146.707 105.655C145.829 110.051 141.453 122.276 139.375 127.839C152.244 114.771 179.331 87.3198 184.721 82.0576C191.458 75.4798 194.175 72.7757 194.8 74.7018C195.426 76.6279 194.784 81.5979 187.392 92.2126C181.478 100.704 166.014 121.374 159.021 130.647C165.507 128.305 180.753 123.016 189.845 120.605C201.209 117.592 200.136 119.883 196.487 124.079C193.567 127.436 179.132 136.624 172.279 140.799C180.575 143.254 198.819 148.59 205.437 150.292C213.71 152.421 208.648 154.007 202.244 153.964C195.839 153.921 189.924 153.843 162.8 153.283C170.953 146.555 220.424 117.721 227.048 113.809C233.673 109.897 233.275 107.709 222.46 107.975C213.807 108.188 197.054 110.906 189.759 112.239C190.703 110.449 193.646 105.761 197.87 101.327C203.151 95.7858 202.23 93.1417 196.416 94.5345C191.766 95.6488 180.396 100.255 175.292 102.419C178.209 87.6035 184.235 56.4819 185.005 50.5179C185.968 43.0629 181.92 45.0706 177.468 55.4791C173.907 63.8058 165.61 84.6294 161.907 94.0003C160.549 90.9764 157.24 82.7541 154.867 74.0556C151.9 63.1826 148.638 65.8739 146.696 73.3976C144.753 80.9213 132.296 146.558 129.88 161.503C127.465 176.447 125.861 188.872 117.785 214.556C109.709 240.239 97.535 260.055 80.9073 275.996C64.2796 291.937 41.0764 291.102 32.77 288.484C24.4636 285.865 16.3264 274.641 21.404 277.215C25.4661 279.274 36.6677 286.807 41.7607 290.315M-6.52204 248.316C-5.92235 253.696 -3.30583 258.521 1.2754 263.852C12.2528 276.626 25.2319 279.163 13.2067 265.477C3.58641 254.529 -3.95424 249.475 -6.52204 248.316Z" stroke="#3E475B" stroke-width="2" stroke-linejoin="round"/>
</svg>
