<svg width="230" height="124" viewBox="0 0 230 124" fill="none" xmlns="http://www.w3.org/2000/svg">
<path d="M16.5 7.30011C14.5 2.90011 12.3333 7.46677 11.5 10.3001C13.1667 14.9668 17.6 27.4 22 39.8C27.5 55.3 23 75.3 42 95.8C61 116.3 101.5 127.8 147 121.8C192.5 115.8 217 80.8 225.5 61.3C234 41.8 224.5 35.8 210.5 46.8C196.5 57.8 141 81.3 108.5 76.8C76 72.3 48 58.3 34.5 41.8C21 25.3 19 12.8001 16.5 7.30011Z" fill="#FEE265"/>
<path d="M0.486209 22.8002C-1.91379 17.2002 5.15288 11.1336 8.98621 8.80024C12.9862 5.78759 14.9862 7.80024 16.4862 11.3002C17.9862 14.8002 20.9862 20.3002 23.4862 31.3002C25.9862 42.3002 18.4862 42.3002 14.9862 38.8002C11.4862 35.3002 3.48621 29.8002 0.486209 22.8002Z" fill="#B69F5D"/>
<path d="M115 118.8C114.167 117.3 110.2 113.8 101 111.8C89.5 109.3 79 111.8 89.5 117.3C100 122.8 133 122.8 161 112.8C189 102.8 225.5 62.8002 229 50.8002C232.5 38.8002 229.5 34.8002 220.5 39.8002C211.5 44.8002 183 65.8002 141 70.8002C99 75.8002 65.5 61.8002 46.5 46.8002C27.5 31.8002 22 12.3002 20 4.80015C18 -2.69985 10.5 2.30015 6.50001 7.80015C2.50001 13.3002 -2.99999 14.3002 6.50001 23.8002C16 33.3002 23.5 39.3002 24.5 58.3002C25.5 77.3002 23 82.8001 42.5 97.8002C46.6116 100.963 50.2564 103.503 53.5 105.552M53.5 105.552C65.6397 113.222 72.1597 114.011 76.5 114.8C82 115.8 85 112.8 76.5 108.3C69.7 104.7 58.3333 104.968 53.5 105.552Z" stroke="#3E475B" stroke-width="2"/>
</svg>
