<svg width="374" height="367" viewBox="0 0 374 367" fill="none" xmlns="http://www.w3.org/2000/svg">
<path d="M132.714 202.747C139.783 199.544 164.246 202.387 185.164 210.339C206.242 217.726 251.988 235.285 266.349 246.424C284.301 260.349 295.085 274.918 278.879 294.199C262.673 313.48 213.512 336.568 174.984 313.715C136.456 290.862 130.266 255.864 128.869 246.921C127.472 237.978 125.645 205.951 132.714 202.747Z" fill="#DD1438"/>
<path d="M185.569 246.033C189.736 232.552 201.37 229.042 206.666 228.971C225.15 227.014 242.989 237.09 249.233 246.112C255.477 255.133 257.958 262.071 241.098 277.406C224.238 292.74 208.181 291.568 198.308 283.491C188.434 275.415 180.36 262.884 185.569 246.033Z" fill="#FDEEC2"/>
<path d="M205.921 45.1531C202.322 47.4672 194.163 56.2335 190.314 72.7863C185.503 93.4773 185.97 102.533 179.466 102.869C172.962 103.206 174.759 91.7669 188.963 94.9193C203.166 98.0716 208.809 98.3091 213.665 88.8293C214.222 91.3309 208.379 105.84 190.047 106.937C215.321 121.574 223.221 124.804 229.985 124.669C236.749 124.534 217.712 129.223 205.386 127.942C193.061 126.661 183.839 124.061 179.147 116.696C174.454 109.331 186.054 109.938 182.993 113.884C179.933 117.829 173.541 118.557 169.829 126.026C166.859 132.001 168.527 136.469 169.732 137.956C166.012 136.312 159.624 131.026 163.83 123.028C169.086 113.032 177.818 108.214 171.559 105.015C165.3 101.816 163.072 120.785 141.793 111.73C124.769 104.487 118.231 93.4546 117.09 88.844C122.055 92.2811 134.855 98.5668 146.337 96.2134C160.689 93.2717 166.235 90.9507 169.591 95.2096C172.947 99.4686 171.722 102.658 162.619 100.978C153.516 99.2989 147.539 94.6627 138.815 79.6167C131.836 67.5799 132.14 58.7091 133.165 55.7783C135.427 60.0167 143.995 70.4707 160.169 78.3804C180.387 88.2674 181.657 96.2893 171.596 92.6251C161.535 88.9609 140.278 78.2676 120.765 79.2764C101.253 80.2852 74.5309 85.2226 54.3873 122.997C34.2436 160.772 46.6282 205.978 80.0252 236.436C113.422 266.894 158.394 276.527 192.994 261.97C227.594 247.413 251.821 208.667 250.93 187.278C250.039 165.89 245.967 149.139 219.961 137.592C193.955 126.045 153.45 147.679 137.048 170.97C120.647 194.262 112.108 233.173 130.18 275.34C148.252 317.506 197.776 349.711 245.837 325.312C293.898 300.913 300.959 259.613 300.862 257.055C300.785 255.008 197.273 211.2 145.527 189.552C141.342 196.378 134.651 216.881 141.369 244.28C149.767 278.528 162.107 298.034 198.711 309.869C235.316 321.704 274.177 278.579 277.534 253.862C249.839 238.589 238.813 238.316 238.865 244.151C238.917 249.987 249.267 261.327 255.289 262.686C261.31 264.045 264.778 260.111 257.241 254.266C249.705 248.42 244.218 251.201 238.204 258.955C232.19 266.708 245.562 277.908 249.208 275.355C252.853 272.801 248.699 267.509 242.718 264.94C236.738 262.371 228.99 265.468 225.879 272.162C222.768 278.855 228.633 291.684 235.68 290.112C242.726 288.541 234.624 282.256 229.933 278.204C225.242 274.151 214.17 273.842 206.493 283.203C198.815 292.564 201.369 297.857 207.732 298.239C214.096 298.621 213.056 283.327 201.459 276.815C189.861 270.302 181.486 277.88 180.298 283.168C179.11 288.456 185.064 294.73 191.227 280.883C197.39 267.035 185.012 259.918 174.543 262.147C164.074 264.375 164.668 268.975 171.128 271.916C177.588 274.857 183.231 260.606 175.821 250.305C168.411 240.004 158.944 240.94 157.414 247.204C155.885 253.469 168.708 256.792 176.429 244.154C184.151 231.516 175.256 224.202 169.316 221.665C163.377 219.127 165.656 234.969 174.685 232.452C183.713 229.934 188.257 214.417 202.535 221.767C213.958 227.646 229.039 234.46 235.153 237.132" stroke="#3E475B" stroke-width="2"/>
</svg>
