<svg width="412" height="550" viewBox="0 0 412 550" fill="none" xmlns="http://www.w3.org/2000/svg">
<path d="M458.168 1C433.649 30.9923 377.775 97.0745 350.433 121.465C316.255 151.953 301.395 181.697 266.474 168.312C231.553 154.927 210.749 155.671 195.889 157.158C181.029 158.645 145.365 159.389 123.075 151.953C100.785 144.517 77.0087 157.158 59.1767 161.62C41.3447 166.082 25.7417 154.927 25.7417 168.312C25.7417 181.697 41.3447 198.057 68.8357 196.57C93.4438 195.238 110.313 199.27 125.304 201.196M199.604 233.75C194.898 232.759 183.258 228.694 174.342 220.365C165.426 212.037 152.299 207.476 146.851 206.237L177.314 183.928C175.828 185.168 170.33 189.134 160.225 195.082C147.594 202.518 146.851 203.262 130.505 201.775C128.791 201.619 127.06 201.422 125.304 201.196M199.604 233.75C196.879 229.536 194.551 219.919 207.034 215.16C222.637 209.211 226.352 227.801 231.553 237.468C236.754 247.135 235.268 259.033 217.436 256.058C231.553 253.828 244.927 257.546 244.184 268.7C243.441 279.854 257.558 283.572 257.558 299.188C257.558 314.804 250.128 328.189 233.782 336.368C253.843 315.547 264.988 320.009 254.586 337.856C246.264 352.133 238.24 358.677 235.268 360.164C244.431 354.463 263.353 337.112 265.731 313.316C270.189 327.445 264.988 356.446 249.385 372.062C273.161 336.368 281.334 323.837 267.96 305.88C288.169 311.829 302.633 318.77 307.339 321.496M199.604 233.75C202.08 235.485 207.034 242.822 207.034 258.289C207.034 277.623 221.151 283.572 233.782 289.521C210.749 287.29 201.09 281.341 201.833 261.264C182.515 256.058 184.744 241.186 179.543 232.263C174.342 223.34 165.426 219.622 160.225 228.545C165.426 217.391 161.711 216.647 154.281 215.16C148.337 213.97 142.393 219.126 140.164 221.852C142.393 216.509 142.541 204.898 125.304 201.196M307.339 321.496C309.568 324.719 314.62 335.03 316.998 350.497C319.375 365.964 320.465 376.771 320.713 380.241M307.339 321.496C306.854 319.393 306.812 316.044 308.825 314.302M337.059 340.98C332.775 338.834 329.08 337.375 327.4 337.856C322.199 339.343 330.372 348.266 339.288 366.113C346.421 380.39 342.26 386.438 339.288 387.678C335.573 377.267 327.548 353.174 325.171 340.086C322.199 323.727 322.942 314.804 314.026 313.316C311.549 312.903 309.896 313.375 308.825 314.302M337.059 340.98C327.4 335.732 330.372 321.496 331.858 325.214C333.344 328.932 339.288 331.163 351.176 337.856C363.064 344.548 360.092 350.497 358.606 351.984C358.181 352.41 355.868 351.313 352.662 349.564M337.059 340.98C342.241 343.576 348.285 347.177 352.662 349.564M352.662 349.564C353.157 347.212 356.228 343.212 364.55 346.035C374.952 349.564 385.354 348.266 403.186 351.984C417.452 354.959 434.887 363.634 441.822 367.6C442.565 377.763 441.822 398.386 432.906 399.575C421.761 401.063 380.153 397.344 364.55 387.678C348.947 378.011 345.232 375.78 345.975 366.113C355.634 374.293 380.153 391.396 403.186 394.37C421.612 396.75 423.742 401.31 422.504 403.293C413.588 405.028 390.109 406.714 367.522 399.575C339.288 390.652 290.993 384.703 260.53 383.96C230.067 383.216 218.922 382.472 202.576 392.139M202.576 392.139C212.978 393.803 223.38 397.344 221.894 407.011C220.705 414.745 208.52 416.678 202.576 416.678M202.576 392.139C191.431 392.139 183.258 398.088 184.744 405.524C186.23 412.96 192.917 415.191 202.576 416.678M308.825 314.302C307.834 312.734 308.825 308.855 320.713 305.88C335.573 302.162 356.377 289.521 358.606 280.598C360.835 271.674 360.092 261.264 345.975 254.571C331.858 247.879 329.629 233.75 327.4 221.852C325.617 212.334 314.274 207.476 308.825 206.237C316.503 206.194 332.898 210.744 337.059 229.288C342.26 252.469 345.975 250.853 357.12 256.058C366.036 260.223 368.265 268.7 368.265 272.418C379.905 261.016 409.13 233.601 432.906 215.16C456.682 196.718 471.542 187.151 476 184.672M125.304 201.196C120.35 199.654 109.998 198.8 108.215 207.724C106.886 214.374 108.462 216.266 113.416 218.916M149.08 261.264C148.337 249.366 144.622 237.468 128.276 227.058C121.675 222.854 116.771 220.711 113.416 218.916M117.874 280.622C118.355 281.105 118.85 281.593 119.36 282.085C125.304 285.803 137.935 282.828 137.192 268.7C137.124 267.414 136.966 266.174 136.734 264.982M117.874 280.622L132.25 268.7M117.874 280.622C116.23 278.969 114.748 277.364 113.416 275.806M117.874 280.622C119.511 282.081 120.751 283.57 121.662 285.059M136.734 264.982C134.923 255.695 128.596 249.332 125.304 247.135C130.505 249.862 141.204 258.587 142.393 271.674C144.869 268.452 147.891 259.033 140.164 247.135C130.505 232.263 110.444 236.725 105.986 242.673C102.349 247.526 99.7013 257.328 110.143 271.674M136.734 264.982L132.25 268.7M132.25 268.7C131.668 265.973 128.276 260.966 119.36 262.751C110.444 264.536 111.682 272.198 113.416 275.806M113.416 275.806C112.205 274.39 111.117 273.012 110.143 271.674M110.143 271.674C109.1 270.282 100.785 262.751 91.8688 268.7C82.9527 274.649 85.9247 287.29 94.8408 296.213C96.4632 297.837 98.0118 299.338 99.5046 300.675M103.757 304.103C108.677 307.537 113.123 308.465 117.874 305.137C121.65 301.581 126.705 293.304 121.662 285.059M103.757 304.103L116.069 291.008M103.757 304.103C102.382 303.143 100.97 301.988 99.5046 300.675M121.662 285.059L116.069 291.008M116.069 291.008C116.423 289.025 114.902 285.059 105.986 285.059C97.0698 285.059 97.95 295.47 99.5046 300.675M99.5046 300.675C85.5934 294.274 75.5227 305.137 78.4947 317.035C80.8723 326.553 90.3828 330.42 94.8408 331.163C91.8688 330.172 85.4789 326.85 83.6957 321.496C81.4667 314.804 84.4387 304.103 94.8408 306.624C105.243 309.145 105.986 319.265 99.5046 325.214C93.0234 331.163 97.8128 343.805 105.986 336.368C112.524 330.42 115.432 315.547 116.069 308.855C116.918 316.291 116.536 332.502 108.215 337.856C107.755 339.343 108.681 343.358 116.069 347.523C125.304 352.728 139.421 337.856 146.851 317.035C152.795 300.378 155.271 285.819 155.767 280.622C153.728 292.512 147.067 319.265 136.734 331.163C123.818 346.035 125.005 354.959 132.25 361.651M60.2233 389.165C60.4565 386.282 61.4748 383.694 63.6348 381.729C70.1732 375.78 96.0791 351.489 108.215 340.086C104.5 342.069 93.8006 347.374 80.7238 352.728C64.3778 359.42 53.9757 378.011 30.1997 397.344C6.4237 416.678 -3.23531 397.344 2.7087 384.703C7.61471 374.269 26.1871 360.289 38.3728 349.871M60.2233 389.165C56.8119 396.601 56.2048 409.986 68.8358 412.96C66.2353 409.242 62.8918 403.293 61.22 397.344M60.2233 389.165C60.0154 391.736 60.4319 394.54 61.22 397.344M61.22 397.344C61.0343 393.626 61.703 386.488 65.8638 387.678C71.0648 389.165 65.8639 404.037 76.2658 409.986C85.4663 415.248 92.3417 403.639 100.491 392.139M132.25 361.651C127.638 364.929 118.596 371.978 111.058 379.498M132.25 361.651C135.483 362.58 140.19 364.957 139.496 368.344M111.058 379.498C119.846 374.293 128.276 378.754 136.734 372.062C138.429 370.72 139.264 369.476 139.496 368.344M111.058 379.498C110.081 380.473 109.129 381.456 108.215 382.44M108.215 382.44C106.582 384.197 105.072 385.957 103.757 387.678C102.641 389.138 101.555 390.638 100.491 392.139M108.215 382.44C106.729 383.69 104.203 388.124 105.986 395.857C107.769 403.591 118.617 405.524 123.818 405.524M123.818 405.524C103.608 410.283 99.8459 398.584 100.491 392.139M123.818 405.524C131 403.789 149.377 397.493 165.426 386.19M139.496 368.344C145.167 373.053 160.373 383.811 175.828 389.165C195.146 395.857 220.408 381.729 227.838 368.344M38.3728 349.871C40.951 347.667 43.2432 345.622 45.0597 343.805C53.3813 335.476 76.2657 306.128 86.6677 292.495C80.5999 296.589 67.0154 307.674 61.22 319.265C54.8653 331.975 48.3676 341.451 41.3507 347.523M38.3728 349.871C39.3763 349.155 40.3686 348.372 41.3507 347.523M41.3507 347.523C37.7984 350.592 30.9841 355.283 24.2004 357.19M18.3118 319.265C3.45176 331.907 2.7087 352.728 13.8538 357.19C16.959 358.433 20.5753 358.209 24.2004 357.19M18.3118 319.265C33.1718 306.624 27.9708 291.008 39.8588 279.11C51.7468 267.213 72.5507 259.777 86.6677 244.161C97.9614 231.668 109.205 222.126 113.416 218.916M18.3118 319.265C16.9864 321.248 13.942 328.189 12.3678 340.086C10.4 354.959 18.2012 357.19 24.2004 357.19M202.576 416.678C205.548 419.157 215.95 423.817 233.782 422.627C250.347 421.522 274.709 426.988 296.194 433.226M299.909 434.32C305.979 436.133 311.76 437.983 316.998 439.73C341.517 447.91 369.751 455.346 377.181 455.346C384.611 455.346 383.125 450.141 364.55 444.936C345.975 439.73 325.171 439.32 299.909 434.32ZM299.909 434.32C298.682 433.953 297.443 433.588 296.194 433.226M296.194 433.226C279.848 428.817 278.362 424.858 260.53 422.627C246.264 420.843 231.801 423.371 226.352 424.858M226.352 424.858C231.058 427.833 241.361 435.715 244.927 443.448C245.462 444.608 246.028 445.853 246.677 447.166M226.352 424.858C223.38 424.474 219.219 425.828 226.352 434.32C233.485 442.812 242.874 446.423 246.677 447.166M459.654 546.81C450.738 548.05 430.826 550.082 422.504 548.297C412.102 546.067 394.27 532.682 379.41 531.194C364.55 529.707 367.522 525.246 366.036 516.322C364.55 507.399 364.55 498.476 382.382 501.45C376.528 497.189 368.386 494.835 358.606 493.023M358.606 493.023C355.634 494.345 350.284 499.814 352.662 511.117C355.04 522.42 360.092 528.22 362.321 529.707C357.368 531.69 346.124 532.979 340.774 522.271C335.424 511.563 342.012 496.961 345.975 490.999M358.606 493.023C354.649 492.29 350.425 491.645 345.975 490.999M345.975 490.999C343.994 496.466 340.625 508.886 343.003 514.835C345.975 522.271 340.774 523.758 328.886 519.297C316.998 514.835 307.339 502.872 304.367 483.571M345.975 490.999C333.55 489.194 319.369 487.374 304.367 483.571M304.367 483.571C300.939 482.701 297.468 481.729 293.965 480.629C260.616 470.158 251.438 456.807 246.677 447.166M59.1767 169.8C61.9011 168.312 66.161 163.999 61.4058 158.645C55.4618 151.953 32.4288 155.671 27.2278 157.158C22.0268 158.645 26.4848 170.543 36.8868 172.03C45.2084 173.22 55.2141 171.039 59.1767 169.8Z" stroke="#DD1438" stroke-width="2"/>
</svg>
