<svg width="322" height="260" viewBox="0 0 322 260" fill="none" xmlns="http://www.w3.org/2000/svg">
<path d="M-83 259C-79.8955 248.893 -69.1073 228.367 -50.7906 227.123C-27.8947 225.568 -9.65566 225.956 1.59824 210.795C11.6879 197.837 39.4734 169.743 69.8977 161.035C107.928 150.15 138.197 160.646 157.989 173.086C177.78 185.526 227.064 182.416 244.915 163.368C262.766 144.319 275.572 95.3366 279.453 82.5079C283.334 69.6792 276.737 68.5129 266.647 72.0117C256.557 75.5104 254.229 86.0066 255.781 96.5029C257.333 106.999 262.766 112.83 261.99 106.999C261.214 101.168 249.184 99.2241 249.572 110.109C249.96 120.994 249.572 140.043 244.915 149.373C240.258 158.703 229.781 163.368 214.646 163.368C199.512 163.368 181.661 175.419 160.317 167.255C138.973 159.091 109.092 151.317 96.6742 144.319C84.2561 137.322 75.3306 119.439 69.8977 107.388C64.4648 95.3366 56.3154 96.5029 48.5541 102.723C40.7928 108.943 33.0315 117.884 47.0019 109.72C60.9722 101.557 76.1068 88.3391 98.2265 82.8967C120.346 77.4542 133.929 65.4029 125.779 47.1317C117.63 28.8605 119.958 14.088 138.973 7.47931C157.989 0.870577 177.004 -4.18316 194.855 10.5893C212.706 25.3618 218.527 30.0268 212.706 20.308C206.885 10.5893 197.183 3.20307 182.437 7.47931C167.69 11.7556 165.75 42.4667 179.72 68.9017C193.691 95.3366 199.9 100.779 210.377 96.5029C220.855 92.2266 248.796 70.4567 257.721 52.1855C266.647 33.9143 263.542 23.8068 246.467 17.198M246.467 17.198C229.393 10.5893 221.243 21.863 219.303 23.0293C217.363 24.1955 218.915 28.083 226.288 24.1955C232.187 21.0855 242.199 18.2347 246.467 17.198ZM151.78 86.0066C134.317 82.5079 134.317 79.7867 125.779 82.8967C117.242 86.0066 112.973 88.3391 104.824 87.1729C96.6742 86.0066 84.2561 89.8941 82.7039 103.112C81.1516 116.329 89.301 134.989 109.48 142.764C129.66 150.539 133.54 150.539 151.78 152.871C170.019 155.204 173.813 157.536 179.72 163.368C185.627 169.199 192.138 176.974 208.437 176.974C224.736 176.974 242.199 163.756 253.065 157.148C263.93 150.539 279.065 134.212 295.364 119.05C311.662 103.889 320.2 104.667 320.976 95.3366C321.752 86.0066 303.513 88.3391 296.528 89.8941C289.543 91.4491 281.005 99.6129 280.229 107.777C279.453 115.94 284.498 117.107 284.886 112.053C285.274 106.999 277.901 106.999 272.856 110.109C267.811 113.219 263.492 124.104 260.826 133.434C258.16 142.764 254.229 152.872 267.811 149.373C281.393 145.874 303.125 128.769 312.05 122.16C320.976 115.552 317.871 112.899 309.334 113.608C300.797 114.317 293.811 121.107 280.229 135.378C266.647 149.649 252.288 154.426 244.915 157.148C237.542 159.869 236.901 154.815 242.199 148.207C247.496 141.598 251.9 116.718 249.572 103.889C247.244 91.0604 243.751 85.6179 237.542 94.1704C231.333 102.723 229.781 113.219 232.497 122.16C235.214 131.102 251.124 132.268 244.915 125.659C238.706 119.05 227.84 125.659 224.736 136.155C221.631 146.652 227.064 153.649 228.228 148.207C229.393 142.764 222.795 138.099 206.885 133.434C190.974 128.769 180.108 124.882 163.033 115.94C145.959 106.999 143.63 105.833 138.197 102.723C132.764 99.6129 134.317 102.723 145.57 110.109C156.824 117.495 182.049 124.493 189.422 125.659C196.795 126.825 195.243 121.383 190.198 116.718C185.153 112.053 178.944 107.388 182.437 114.774C185.929 122.16 189.034 125.27 201.84 127.992C214.646 130.713 222.795 133.434 223.184 125.659C223.572 117.884 221.243 116.329 219.303 122.16C217.363 127.992 224.348 133.823 230.945 127.992C237.542 122.16 233.661 112.83 224.736 108.943C215.81 105.055 212.318 107.777 191.75 98.8354C175.296 91.6824 158.247 87.3025 151.78 86.0066Z" stroke="#DD1438" stroke-width="2"/>
</svg>
