<svg width="204" height="182" viewBox="0 0 204 182" fill="none" xmlns="http://www.w3.org/2000/svg">
<path d="M1.4082 48.3547C26.367 60.8494 44.6404 60.6263 60.6854 52.1478C76.7304 43.6692 71.3821 33.6288 60.6854 24.9272C57.5656 16.4486 54.6686 12.8787 45.309 18.2336C35.9494 23.5885 27.4813 34.9675 15.8932 40.9918C4.30521 47.016 1.4082 47.016 1.4082 48.3547ZM1.4082 48.3547C1.4082 49.6934 4.97375 49.2472 15.8932 46.1235C26.8127 42.9998 51.103 30.5051 57.3427 27.3815C63.5824 24.2578 70.045 14.2174 71.6049 8.4163C73.1648 2.61519 73.8334 2.61519 71.6049 1.94583C69.3764 1.27647 66.9251 3.50767 67.3708 5.96199C67.8165 8.4163 72.2734 5.06951 73.8334 5.96199C75.0813 6.67597 74.3533 8.34193 73.8334 9.08566L77.3989 8.4163C76.8789 8.78817 76.151 9.93351 77.3989 11.54C78.9588 13.5481 86.9813 20.6879 88.0956 33.4057C88.6674 39.9322 88.4762 44.4609 88.1245 47.6854M88.1245 47.6854C87.7908 50.7442 87.3127 52.6293 87.2042 53.9327C86.9813 56.6101 85.4214 57.0564 91.6611 57.5026C97.9008 57.9489 104.586 55.7176 98.5694 53.9327C92.5525 52.1478 87.2042 53.9327 78.736 53.9327C70.2678 53.9327 76.2847 60.6263 80.5188 61.7419C84.7529 62.8575 99.9064 59.2876 113.054 57.5026C126.202 55.7177 132.888 52.3709 138.459 68.2124C144.03 84.0539 138.013 92.9786 129.322 92.9786C120.631 92.9786 114.391 73.3441 113.723 67.543C113.054 61.7419 122.191 55.9408 133.111 56.1639C144.03 56.387 152.053 66.6505 151.161 88.7394C150.27 110.828 142.024 133.586 126.202 146.081C110.38 158.576 102.581 159.468 97.9008 157.014C93.221 154.56 91.6611 157.014 91.6611 159.245C91.6611 161.476 90.5469 157.46 89.8783 155.675C89.2098 153.89 88.0956 157.683 88.5413 159.245C88.9869 160.807 88.9869 157.46 87.427 155.675C85.8671 153.89 85.8671 157.683 86.0899 159.245C86.3128 160.807 85.1985 155.452 78.5131 157.906C71.8277 160.361 58.2341 156.791 45.309 140.28C32.3839 123.769 28.1498 106.812 25.9213 88.5162C23.6929 70.2204 33.721 55.9408 46.4232 47.6854C59.1255 39.4299 75.674 40.5272 88.1245 47.6854ZM88.1245 47.6854C91.4576 45.0079 101.243 40.1885 113.723 42.3305C129.322 45.0079 138.744 49.4703 144.921 65.3118C151.099 81.1533 147.596 104.581 136.899 121.761C126.202 138.941 107.483 150.32 88.5413 152.998C69.5993 155.675 52.6629 146.304 43.5262 128.678C34.3895 111.051 29.9326 86.7313 45.309 80.0377C60.6854 73.3441 80.9645 81.1533 93.221 99.4491C105.478 117.745 128.876 137.826 148.264 147.42C167.652 157.014 225.014 187.383 301.547 179.374" stroke="#DD1438" stroke-width="2"/>
</svg>
