<svg width="172" height="268" viewBox="0 0 172 268" fill="none" xmlns="http://www.w3.org/2000/svg">
<path d="M6.92995 10.121C23.1412 32.8423 39.395 41.1957 57.5424 41.2105C75.6897 41.2253 75.6612 29.8493 70.2796 17.1538C71.4897 8.2009 70.5999 3.69035 59.8225 4.04324C49.0451 4.39612 36.2367 10.4901 23.1767 10.3918C10.1167 10.2935 7.55637 8.93792 6.92995 10.121ZM6.92995 10.121C6.30353 11.3041 9.66346 12.5782 20.7754 14.9271C31.8873 17.276 59.2009 17.5996 66.177 17.7587C73.1531 17.9178 83.5626 12.0685 87.6557 7.67155C91.7488 3.27465 92.3397 3.58747 90.6834 1.95316C89.0272 0.318845 85.8168 1.14367 85.0622 3.52127C84.3077 5.89887 89.8126 5.02659 90.7736 6.54526C91.5424 7.7602 90.1195 8.89189 89.312 9.30586L92.7763 10.3827C92.1428 10.4681 90.9635 11.1396 91.3147 13.1433C91.7537 15.6479 95.5028 25.7118 90.5365 37.4728C87.9879 43.5083 85.6999 47.4212 83.8803 50.1062M83.8803 50.1062C82.1541 52.6534 80.8494 54.0956 80.1436 55.1968C78.6938 57.4587 77.1064 57.1232 82.412 60.4373C87.7177 63.7514 94.6701 64.9077 90.1878 60.5148C85.7055 56.1219 80.1436 55.1968 72.6597 51.2343C65.1758 47.2718 67.3612 56.0029 70.5811 58.97C73.8011 61.9372 88.8638 65.873 101.319 70.4477C113.774 75.0225 121.248 75.193 118.759 91.8001C116.27 108.407 106.776 113.479 99.0956 109.412C91.4147 105.346 95.0878 85.0736 97.2114 79.6339C99.3351 74.1943 110.124 73.3427 119.67 78.6494C129.216 83.9561 131.504 96.7806 120.38 115.885C109.256 134.989 91.32 151.244 71.4904 154.883C51.6607 158.522 44.35 155.661 41.3626 151.302C38.3752 146.943 35.8482 148.382 34.8041 150.354C33.7601 152.326 34.6546 148.255 34.899 146.365C35.1434 144.475 32.3838 147.305 32.0469 148.894C31.71 150.483 33.276 147.525 32.7326 145.218C32.1892 142.91 30.4144 146.263 29.8805 147.747C29.3466 149.232 30.8676 143.978 23.8108 143.019C16.754 142.059 6.41086 132.544 2.71391 111.904C-0.983046 91.2642 3.20966 74.2968 9.80129 57.0848C16.3929 39.8728 31.9372 31.9453 47.026 30.5931C62.1148 29.241 76.2264 37.9542 83.8803 50.1062ZM83.8803 50.1062C88.0787 49.2996 98.9824 49.6195 109.009 57.3519C121.542 67.0174 127.781 75.37 125.828 92.2606C123.874 109.151 109.816 128.217 92.3237 138.395C74.8312 148.573 52.9633 149.87 34.9702 143.373C16.9771 136.876 6.39419 120.669 6.56732 100.816C6.74044 80.9631 14.1815 57.3843 30.9028 58.6637C47.6241 59.9432 61.8919 76.3338 64.1628 98.2382C66.4337 120.143 77.7166 148.838 90.3615 166.389C103.006 183.94 139.491 237.621 210.876 266.354" stroke="#DD1438" stroke-width="2"/>
</svg>
