<svg width="699" height="235" viewBox="0 0 699 235" fill="none" xmlns="http://www.w3.org/2000/svg">
<path d="M688.943 120.213C688.943 135.706 679.526 150.545 662.312 164.113C645.103 177.678 620.171 189.915 589.318 200.202C527.617 220.773 442.346 233.505 348.135 233.505C253.924 233.505 168.652 220.773 106.951 200.202C76.0979 189.915 51.1658 177.678 33.9573 164.113C16.7431 150.545 7.32605 135.706 7.32605 120.213C7.32605 104.721 16.7431 89.8821 33.9573 76.3133C51.1658 62.7488 76.0979 50.5114 106.951 40.225C168.652 19.6539 253.924 6.92188 348.135 6.92188C442.346 6.92188 527.617 19.6539 589.318 40.225C620.171 50.5114 645.103 62.7488 662.312 76.3133C679.526 89.8821 688.943 104.721 688.943 120.213Z" stroke="#FDEEC2"/>
<path d="M670.149 120.213C670.149 135.729 661.88 150.319 646.439 163.5C630.995 176.683 608.417 188.416 579.917 198.201C522.919 217.768 442.35 229.5 348.135 229.5C253.923 229.5 174.428 216.768 118.505 196.202C90.5424 185.918 68.4994 173.686 53.456 160.13C38.4144 146.575 30.4058 131.733 30.4058 116.209C30.4058 100.685 38.4138 85.9103 53.4546 72.4576C68.4976 59.003 90.5402 46.9056 118.503 36.7573C174.427 16.4618 253.922 4 348.135 4C442.343 4 522.909 17.4619 579.904 38.7581C608.403 49.4068 630.983 62.0048 646.43 75.8365C661.877 89.6683 670.149 104.694 670.149 120.213Z" stroke="#FDEEC2"/>
<path d="M680.072 116.209C680.072 131.743 672.628 146.242 658.455 159.274C644.277 172.311 623.387 183.855 596.575 193.45C542.953 212.641 465.758 224 371.541 224C277.314 224 190.889 215.463 128.036 199.083C96.6057 190.892 71.1041 180.749 53.4715 168.756C35.8359 156.76 26.1531 142.974 26.1531 127.5C26.1531 96.4061 54.238 67.2758 106.128 45.8953C157.971 24.5339 233.387 11 327.596 11C421.814 11 510.009 21.7129 574.633 40.2679C606.949 49.5463 633.339 60.7771 651.64 73.5883C669.95 86.4058 680.072 100.737 680.072 116.209Z" stroke="#FDEEC2"/>
<path d="M698.5 120.25C698.5 135.75 689.671 150.069 673.363 162.853C657.054 175.637 633.321 186.837 603.662 196.087C544.351 214.585 461.467 225.244 367.248 225.244C273.03 225.244 181.264 214.585 113.068 196.081C78.966 186.829 50.7883 175.623 31.1477 162.827C11.4901 150.021 0.5 135.703 0.5 120.25C0.5 104.785 10.9085 90.467 29.6634 77.6666C48.4069 64.8741 75.3881 53.6692 108.294 44.4172C174.098 25.9151 263.473 15.2558 357.691 15.2558C451.91 15.2558 537.186 25.9152 598.889 44.4148C629.744 53.6655 654.674 64.8677 671.88 77.6549C689.089 90.4447 698.5 104.763 698.5 120.25Z" stroke="#FDEEC2"/>
<path d="M682.117 120.25C682.117 135.732 672.627 149.75 655.292 162.092C637.96 174.433 612.86 185.039 581.833 193.693C519.786 211 434.167 220.466 339.943 220.466C245.719 220.466 164.2 211 106.254 193.696C77.278 185.043 54.2297 174.44 38.4354 162.106C22.6452 149.775 14.1525 135.755 14.1525 120.25C14.1525 104.759 23.8236 89.5469 41.4271 75.4154C59.022 61.2909 84.4682 48.3085 115.833 37.2773C178.558 15.2167 264.851 0.995239 359.057 0.995239C453.262 0.995239 534.088 15.2167 591.345 37.2722C619.974 48.3006 642.687 61.2784 658.233 75.3956C673.78 89.5139 682.117 104.73 682.117 120.25Z" stroke="#FDEEC2"/>
</svg>
